Exo-Bold.ufo
<glyph name="zero" format="1">
  <advance width="647"/>
  <unicode hex="0030"/>
  <note>
    GF Latin Plus glyph
  </note>
  <outline>
    <contour>
      <point x="203" y="210" type="curve" smooth="yes"/>
      <point x="203" y="533" type="line" smooth="yes"/>
      <point x="203" y="586"/>
      <point x="230" y="613"/>
      <point x="279" y="613" type="curve" smooth="yes"/>
      <point x="370" y="613" type="line" smooth="yes"/>
      <point x="416" y="613"/>
      <point x="444" y="591"/>
      <point x="444" y="533" type="curve" smooth="yes"/>
      <point x="444" y="209" type="line" smooth="yes"/>
      <point x="444" y="155"/>
      <point x="418" y="129"/>
      <point x="364" y="129" type="curve" smooth="yes"/>
      <point x="284" y="129" type="line" smooth="yes"/>
      <point x="232" y="129"/>
      <point x="203" y="153"/>
    </contour>
    <contour>
      <point x="55" y="187" type="line" smooth="yes"/>
      <point x="55" y="62"/>
      <point x="125" y="-4"/>
      <point x="249" y="-4" type="curve" smooth="yes"/>
      <point x="404" y="-4" type="line" smooth="yes"/>
      <point x="522" y="-4"/>
      <point x="592" y="63"/>
      <point x="592" y="187" type="curve" smooth="yes"/>
      <point x="592" y="547" type="line" smooth="yes"/>
      <point x="592" y="672"/>
      <point x="529" y="746"/>
      <point x="404" y="746" type="curve" smooth="yes"/>
      <point x="250" y="746" type="line" smooth="yes"/>
      <point x="129" y="746"/>
      <point x="55" y="677"/>
      <point x="55" y="547" type="curve" smooth="yes"/>
    </contour>
  </outline>
</glyph>
<glyph name="nine" format="1">
  <advance width="607"/>
  <unicode hex="0039"/>
  <note>
    GF Latin Plus glyph
  </note>
  <outline>
    <contour>
      <point x="410" y="421" type="curve"/>
      <point x="285" y="421" type="line" smooth="yes"/>
      <point x="223" y="421"/>
      <point x="195" y="434"/>
      <point x="195" y="493" type="curve" smooth="yes"/>
      <point x="195" y="541" type="line" smooth="yes"/>
      <point x="195" y="593"/>
      <point x="220" y="612"/>
      <point x="263" y="612" type="curve" smooth="yes"/>
      <point x="308" y="612" type="line" smooth="yes"/>
      <point x="379" y="612"/>
      <point x="410" y="573"/>
    </contour>
    <contour>
      <point x="559" y="380" type="curve" smooth="yes"/>
      <point x="559" y="671"/>
      <point x="481" y="745"/>
      <point x="337" y="745" type="curve" smooth="yes"/>
      <point x="230" y="745" type="line" smooth="yes"/>
      <point x="122" y="745"/>
      <point x="47" y="696"/>
      <point x="47" y="571" type="curve" smooth="yes"/>
      <point x="47" y="465" type="line" smooth="yes"/>
      <point x="47" y="360"/>
      <point x="96" y="295"/>
      <point x="243" y="295" type="curve" smooth="yes"/>
      <point x="310" y="295"/>
      <point x="364" y="298"/>
      <point x="410" y="312" type="curve"/>
      <point x="410" y="191"/>
      <point x="365" y="128"/>
      <point x="265" y="128" type="curve" smooth="yes"/>
      <point x="91" y="128" type="line"/>
      <point x="91" y="11" type="line"/>
      <point x="144" y="0"/>
      <point x="214" y="-5"/>
      <point x="279" y="-5" type="curve" smooth="yes"/>
      <point x="455" y="-5"/>
      <point x="559" y="90"/>
    </contour>
  </outline>
</glyph>
<glyph name="D" format="1">
  <advance width="680"/>
  <unicode hex="0044"/>
  <note>
    GF Latin Plus glyph
  </note>
  <outline>
    <contour>
      <point x="212" y="133" type="line"/>
      <point x="212" y="607" type="line"/>
      <point x="362" y="607" type="line" smooth="yes"/>
      <point x="445" y="607"/>
      <point x="487" y="563"/>
      <point x="487" y="370" type="curve" smooth="yes"/>
      <point x="487" y="214"/>
      <point x="453" y="133"/>
      <point x="362" y="133" type="curve" smooth="yes"/>
    </contour>
    <contour>
      <point x="64" y="0" type="line"/>
      <point x="377" y="0" type="line" smooth="yes"/>
      <point x="550" y="0"/>
      <point x="635" y="120"/>
      <point x="635" y="370" type="curve" smooth="yes"/>
      <point x="635" y="589"/>
      <point x="577" y="740"/>
      <point x="377" y="740" type="curve" smooth="yes"/>
      <point x="64" y="740" type="line"/>
    </contour>
    <contour>
      <point x="328" y="810" type="move" name="top"/>
    </contour>
    <contour>
      <point x="295" y="-150" type="move" name="bottom"/>
    </contour>
  </outline>
</glyph>
<glyph name="U" format="1">
  <advance width="686"/>
  <unicode hex="0055"/>
  <note>
    GF Latin Plus glyph
  </note>
  <outline>
    <contour>
      <point x="54" y="238" type="line" smooth="yes"/>
      <point x="54" y="40"/>
      <point x="178" y="-5"/>
      <point x="343" y="-5" type="curve" smooth="yes"/>
      <point x="507" y="-5"/>
      <point x="632" y="40"/>
      <point x="632" y="238" type="curve" smooth="yes"/>
      <point x="632" y="740" type="line"/>
      <point x="483" y="740" type="line"/>
      <point x="483" y="239" type="line" smooth="yes"/>
      <point x="483" y="157"/>
      <point x="432" y="128"/>
      <point x="343" y="128" type="curve" smooth="yes"/>
      <point x="254" y="128"/>
      <point x="202" y="157"/>
      <point x="202" y="239" type="curve" smooth="yes"/>
      <point x="202" y="740" type="line"/>
      <point x="54" y="740" type="line"/>
    </contour>
    <contour>
      <point x="334" y="810" type="move" name="top"/>
    </contour>
    <contour>
      <point x="418" y="0" type="move" name="ogonek"/>
    </contour>
    <contour>
      <point x="334" y="-150" type="move" name="bottom"/>
    </contour>
  </outline>
</glyph>
<glyph name="b" format="1">
  <advance width="585"/>
  <unicode hex="0062"/>
  <note>
    GF Latin Plus glyph
  </note>
  <outline>
    <contour>
      <point x="205" y="141" type="curve"/>
      <point x="205" y="396" type="line"/>
      <point x="231" y="411"/>
      <point x="267" y="426"/>
      <point x="306" y="426" type="curve" smooth="yes"/>
      <point x="353" y="426"/>
      <point x="396" y="408"/>
      <point x="396" y="270" type="curve" smooth="yes"/>
      <point x="396" y="149"/>
      <point x="358" y="115"/>
      <point x="306" y="115" type="curve" smooth="yes"/>
      <point x="262" y="115"/>
      <point x="229" y="128"/>
    </contour>
    <contour>
      <point x="57" y="0" type="line"/>
      <point x="181" y="0" type="line"/>
      <point x="205" y="51" type="line"/>
      <point x="244" y="20"/>
      <point x="290" y="-6"/>
      <point x="361" y="-6" type="curve" smooth="yes"/>
      <point x="486" y="-6"/>
      <point x="544" y="82"/>
      <point x="544" y="263" type="curve" smooth="yes"/>
      <point x="544" y="464"/>
      <point x="492" y="545"/>
      <point x="354" y="545" type="curve" smooth="yes"/>
      <point x="306" y="545"/>
      <point x="247" y="523"/>
      <point x="205" y="500" type="curve"/>
      <point x="205" y="763" type="line"/>
      <point x="57" y="763" type="line"/>
    </contour>
  </outline>
</glyph>
<glyph name="d" format="1">
  <advance width="583"/>
  <unicode hex="0064"/>
  <note>
    GF Latin Plus glyph
  </note>
  <outline>
    <contour>
      <point x="189" y="270" type="curve" smooth="yes"/>
      <point x="189" y="403"/>
      <point x="217" y="434"/>
      <point x="291" y="434" type="curve" smooth="yes"/>
      <point x="324" y="434"/>
      <point x="354" y="423"/>
      <point x="380" y="413" type="curve"/>
      <point x="380" y="143" type="line"/>
      <point x="358" y="129"/>
      <point x="325" y="113"/>
      <point x="285" y="113" type="curve" smooth="yes"/>
      <point x="215" y="113"/>
      <point x="189" y="144"/>
    </contour>
    <contour>
      <point x="41" y="263" type="curve" smooth="yes"/>
      <point x="41" y="68"/>
      <point x="107" y="-6"/>
      <point x="233" y="-6" type="curve" smooth="yes"/>
      <point x="287" y="-6"/>
      <point x="345" y="20"/>
      <point x="380" y="51" type="curve"/>
      <point x="404" y="0" type="line"/>
      <point x="529" y="0" type="line"/>
      <point x="529" y="763" type="line"/>
      <point x="380" y="763" type="line"/>
      <point x="380" y="520" type="line"/>
      <point x="343" y="533"/>
      <point x="292" y="545"/>
      <point x="243" y="545" type="curve" smooth="yes"/>
      <point x="89" y="545"/>
      <point x="41" y="462"/>
    </contour>
    <contour>
      <point x="549" y="650" type="move" name="altcaron"/>
    </contour>
    <contour>
      <point x="283" y="-150" type="move" name="bottom"/>
    </contour>
  </outline>
</glyph>
<glyph name="florin" format="1">
  <advance width="609"/>
  <unicode hex="0192"/>
  <note>
    GF Latin Plus glyph
  </note>
  <outline>
    <contour>
      <point x="15" y="-184" type="line"/>
      <point x="34" y="-193"/>
      <point x="75" y="-204"/>
      <point x="126" y="-204" type="curve" smooth="yes"/>
      <point x="252" y="-204"/>
      <point x="307" y="-106"/>
      <point x="339" y="88" type="curve" smooth="yes"/>
      <point x="388" y="375" type="line"/>
      <point x="492" y="375" type="line"/>
      <point x="509" y="479" type="line"/>
      <point x="400" y="479" type="line"/>
      <point x="418" y="572" type="line" smooth="yes"/>
      <point x="431" y="648"/>
      <point x="452" y="688"/>
      <point x="518" y="688" type="curve" smooth="yes"/>
      <point x="567" y="688" type="line"/>
      <point x="581" y="780" type="line"/>
      <point x="565" y="787"/>
      <point x="532" y="799"/>
      <point x="466" y="799" type="curve" smooth="yes"/>
      <point x="347" y="799"/>
      <point x="297" y="720"/>
      <point x="277" y="612" type="curve" smooth="yes"/>
      <point x="252" y="479" type="line"/>
      <point x="171" y="479" type="line"/>
      <point x="154" y="375" type="line"/>
      <point x="240" y="375" type="line"/>
      <point x="185" y="51" type="line" smooth="yes"/>
      <point x="167" y="-56"/>
      <point x="140" y="-93"/>
      <point x="79" y="-93" type="curve" smooth="yes"/>
      <point x="30" y="-93" type="line"/>
    </contour>
  </outline>
</glyph>
<glyph name="ogonek" format="1">
  <advance width="213"/>
  <unicode hex="02DB"/>
  <note>
    GF Latin Plus glyph
  </note>
  <outline>
    <contour>
      <point x="104" y="0" type="line"/>
      <point x="62" y="-22"/>
      <point x="37" y="-56"/>
      <point x="37" y="-102" type="curve" smooth="yes"/>
      <point x="37" y="-146"/>
      <point x="67" y="-192"/>
      <point x="144" y="-192" type="curve" smooth="yes"/>
      <point x="157" y="-192"/>
      <point x="169" y="-191"/>
      <point x="176" y="-188" type="curve"/>
      <point x="176" y="-119" type="line"/>
      <point x="167" y="-119" type="line" smooth="yes"/>
      <point x="133" y="-119"/>
      <point x="109" y="-100"/>
      <point x="109" y="-68" type="curve" smooth="yes"/>
      <point x="109" y="-42"/>
      <point x="123" y="-21"/>
      <point x="158" y="0" type="curve"/>
    </contour>
  </outline>
</glyph>
<glyph name="perthousand" format="1">
  <advance width="1378"/>
  <unicode hex="2030"/>
  <note>
    GF Latin Plus glyph
  </note>
  <outline>
    <contour>
      <point x="1070" y="157" type="curve" smooth="yes"/>
      <point x="1070" y="232" type="line" smooth="yes"/>
      <point x="1070" y="281"/>
      <point x="1092" y="290"/>
      <point x="1129" y="290" type="curve" smooth="yes"/>
      <point x="1194" y="290" type="line" smooth="yes"/>
      <point x="1235" y="290"/>
      <point x="1251" y="277"/>
      <point x="1251" y="232" type="curve" smooth="yes"/>
      <point x="1251" y="157" type="line" smooth="yes"/>
      <point x="1251" y="117"/>
      <point x="1237" y="99"/>
      <point x="1192" y="99" type="curve" smooth="yes"/>
      <point x="1127" y="99" type="line" smooth="yes"/>
      <point x="1082" y="99"/>
      <point x="1070" y="118"/>
    </contour>
    <contour>
      <point x="975" y="135" type="line" smooth="yes"/>
      <point x="975" y="50"/>
      <point x="1011" y="3"/>
      <point x="1109" y="3" type="curve" smooth="yes"/>
      <point x="1210" y="3" type="line" smooth="yes"/>
      <point x="1311" y="3"/>
      <point x="1346" y="50"/>
      <point x="1346" y="135" type="curve" smooth="yes"/>
      <point x="1346" y="254" type="line" smooth="yes"/>
      <point x="1346" y="339"/>
      <point x="1310" y="386"/>
      <point x="1212" y="386" type="curve" smooth="yes"/>
      <point x="1111" y="386" type="line" smooth="yes"/>
      <point x="1010" y="386"/>
      <point x="975" y="339"/>
      <point x="975" y="254" type="curve" smooth="yes"/>
    </contour>
    <contour>
      <point x="656" y="157" type="curve" smooth="yes"/>
      <point x="656" y="232" type="line" smooth="yes"/>
      <point x="656" y="281"/>
      <point x="678" y="290"/>
      <point x="715" y="290" type="curve" smooth="yes"/>
      <point x="779" y="290" type="line" smooth="yes"/>
      <point x="820" y="290"/>
      <point x="837" y="277"/>
      <point x="837" y="232" type="curve" smooth="yes"/>
      <point x="837" y="157" type="line" smooth="yes"/>
      <point x="837" y="117"/>
      <point x="823" y="99"/>
      <point x="777" y="99" type="curve" smooth="yes"/>
      <point x="713" y="99" type="line" smooth="yes"/>
      <point x="668" y="99"/>
      <point x="656" y="118"/>
    </contour>
    <contour>
      <point x="561" y="135" type="line" smooth="yes"/>
      <point x="561" y="50"/>
      <point x="596" y="3"/>
      <point x="694" y="3" type="curve" smooth="yes"/>
      <point x="796" y="3" type="line" smooth="yes"/>
      <point x="897" y="3"/>
      <point x="932" y="50"/>
      <point x="932" y="135" type="curve" smooth="yes"/>
      <point x="932" y="254" type="line" smooth="yes"/>
      <point x="932" y="339"/>
      <point x="896" y="386"/>
      <point x="798" y="386" type="curve" smooth="yes"/>
      <point x="696" y="386" type="line" smooth="yes"/>
      <point x="595" y="386"/>
      <point x="561" y="339"/>
      <point x="561" y="254" type="curve" smooth="yes"/>
    </contour>
    <contour>
      <point x="205" y="0" type="line"/>
      <point x="307" y="0" type="line"/>
      <point x="751" y="732" type="line"/>
      <point x="655" y="732" type="line"/>
    </contour>
    <contour>
      <point x="129" y="503" type="curve" smooth="yes"/>
      <point x="129" y="578" type="line" smooth="yes"/>
      <point x="129" y="627"/>
      <point x="150" y="636"/>
      <point x="187" y="636" type="curve" smooth="yes"/>
      <point x="252" y="636" type="line" smooth="yes"/>
      <point x="293" y="636"/>
      <point x="309" y="623"/>
      <point x="309" y="578" type="curve" smooth="yes"/>
      <point x="309" y="503" type="line" smooth="yes"/>
      <point x="309" y="463"/>
      <point x="295" y="445"/>
      <point x="250" y="445" type="curve" smooth="yes"/>
      <point x="185" y="445" type="line" smooth="yes"/>
      <point x="140" y="445"/>
      <point x="129" y="464"/>
    </contour>
    <contour>
      <point x="33" y="481" type="line" smooth="yes"/>
      <point x="33" y="396"/>
      <point x="69" y="349"/>
      <point x="167" y="349" type="curve" smooth="yes"/>
      <point x="268" y="349" type="line" smooth="yes"/>
      <point x="369" y="349"/>
      <point x="404" y="396"/>
      <point x="404" y="481" type="curve" smooth="yes"/>
      <point x="404" y="600" type="line" smooth="yes"/>
      <point x="404" y="685"/>
      <point x="368" y="732"/>
      <point x="270" y="732" type="curve" smooth="yes"/>
      <point x="169" y="732" type="line" smooth="yes"/>
      <point x="68" y="732"/>
      <point x="33" y="685"/>
      <point x="33" y="600" type="curve" smooth="yes"/>
    </contour>
  </outline>
</glyph>
<glyph name="fivesuperior" format="1">
  <advance width="452"/>
  <unicode hex="2075"/>
  <outline>
    <contour>
      <point x="48" y="289" type="line"/>
      <point x="110" y="283"/>
      <point x="180" y="276"/>
      <point x="238" y="276" type="curve" smooth="yes"/>
      <point x="364" y="276"/>
      <point x="428" y="316"/>
      <point x="428" y="414" type="curve" smooth="yes"/>
      <point x="428" y="493" type="line" smooth="yes"/>
      <point x="428" y="566"/>
      <point x="388" y="618"/>
      <point x="302" y="618" type="curve" smooth="yes"/>
      <point x="244" y="618" type="line" smooth="yes"/>
      <point x="217" y="618"/>
      <point x="190" y="613"/>
      <point x="175" y="599" type="curve"/>
      <point x="179" y="707" type="line"/>
      <point x="406" y="707" type="line"/>
      <point x="406" y="820" type="line"/>
      <point x="68" y="820" type="line"/>
      <point x="53" y="484" type="line"/>
      <point x="176" y="484" type="line"/>
      <point x="179" y="506"/>
      <point x="192" y="516"/>
      <point x="218" y="516" type="curve" smooth="yes"/>
      <point x="255" y="516" type="line" smooth="yes"/>
      <point x="283" y="516"/>
      <point x="298" y="499"/>
      <point x="298" y="472" type="curve" smooth="yes"/>
      <point x="298" y="434" type="line" smooth="yes"/>
      <point x="298" y="405"/>
      <point x="276" y="388"/>
      <point x="243" y="388" type="curve" smooth="yes"/>
      <point x="48" y="388" type="line"/>
    </contour>
  </outline>
</glyph>
<glyph name="sevensuperior" format="1">
  <advance width="452"/>
  <unicode hex="2077"/>
  <outline>
    <contour>
      <point x="33" y="694" type="line"/>
      <point x="257" y="694" type="line"/>
      <point x="98" y="280" type="line"/>
      <point x="244" y="280" type="line"/>
      <point x="419" y="750" type="line"/>
      <point x="393" y="820" type="line"/>
      <point x="33" y="820" type="line"/>
    </contour>
  </outline>
</glyph>
<glyph name="n.superior" format="1">
  <advance width="444"/>
  <unicode hex="207F"/>
  <outline>
    <contour>
      <point x="36" y="280" type="line"/>
      <point x="167" y="280" type="line"/>
      <point x="167" y="540" type="line"/>
      <point x="184" y="554"/>
      <point x="207" y="565"/>
      <point x="233" y="565" type="curve" smooth="yes"/>
      <point x="261" y="565"/>
      <point x="279" y="549"/>
      <point x="279" y="519" type="curve" smooth="yes"/>
      <point x="279" y="280" type="line"/>
      <point x="409" y="280" type="line"/>
      <point x="409" y="535" type="line" smooth="yes"/>
      <point x="409" y="615"/>
      <point x="386" y="678"/>
      <point x="284" y="678" type="curve" smooth="yes"/>
      <point x="240" y="678"/>
      <point x="193" y="655"/>
      <point x="167" y="633" type="curve"/>
      <point x="145" y="672" type="line"/>
      <point x="36" y="672" type="line"/>
    </contour>
    <contour>
      <point x="222" y="753" type="move" name="top"/>
    </contour>
    <contour>
      <point x="222" y="170" type="move" name="bottom"/>
    </contour>
  </outline>
</glyph>
<glyph name="lozenge" format="1">
  <advance width="513"/>
  <unicode hex="25CA"/>
  <outline>
    <contour>
      <point x="153" y="373" type="line"/>
      <point x="259" y="549" type="line"/>
      <point x="360" y="373" type="line"/>
      <point x="259" y="188" type="line"/>
    </contour>
    <contour>
      <point x="15" y="373" type="line"/>
      <point x="229" y="0" type="line"/>
      <point x="290" y="0" type="line"/>
      <point x="497" y="373" type="line"/>
      <point x="290" y="732" type="line"/>
      <point x="229" y="732" type="line"/>
    </contour>
  </outline>
</glyph>
<glyph name="A.smcp" format="1">
  <advance width="576"/>
  <outline>
    <contour>
      <point x="216" y="205" type="line"/>
      <point x="287" y="459" type="line"/>
      <point x="359" y="205" type="line"/>
    </contour>
    <contour>
      <point x="20" y="0" type="line"/>
      <point x="164" y="0" type="line"/>
      <point x="193" y="100" type="line"/>
      <point x="381" y="100" type="line"/>
      <point x="410" y="0" type="line"/>
      <point x="556" y="0" type="line"/>
      <point x="390" y="560" type="line"/>
      <point x="185" y="560" type="line"/>
    </contour>
    <contour>
      <point x="286" y="650" type="move" name="top"/>
    </contour>
    <contour>
      <point x="546" y="0" type="move" name="ogonek"/>
    </contour>
    <contour>
      <point x="286" y="-143" type="move" name="bottom"/>
    </contour>
  </outline>
</glyph>
<glyph name="Eng.smcp" format="1">
  <advance width="587"/>
  <outline>
    <contour>
      <point x="276" y="-184" type="line"/>
      <point x="300" y="-191"/>
      <point x="339" y="-199"/>
      <point x="376" y="-199" type="curve" smooth="yes"/>
      <point x="492" y="-199"/>
      <point x="537" y="-146"/>
      <point x="537" y="-51" type="curve" smooth="yes"/>
      <point x="537" y="55" type="line"/>
      <point x="396" y="55" type="line"/>
      <point x="396" y="-30" type="line" smooth="yes"/>
      <point x="396" y="-63"/>
      <point x="382" y="-79"/>
      <point x="347" y="-79" type="curve" smooth="yes"/>
      <point x="345" y="-79"/>
      <point x="278" y="-78"/>
      <point x="276" y="-78" type="curve"/>
    </contour>
    <component base="N.smcp"/>
  </outline>
</glyph>
<glyph name="K.smcp" format="1">
  <advance width="553"/>
  <outline>
    <contour>
      <point x="59" y="0" type="line"/>
      <point x="200" y="0" type="line"/>
      <point x="200" y="217" type="line"/>
      <point x="268" y="217" type="line"/>
      <point x="380" y="0" type="line"/>
      <point x="529" y="0" type="line"/>
      <point x="380" y="279" type="line"/>
      <point x="523" y="560" type="line"/>
      <point x="373" y="560" type="line"/>
      <point x="268" y="337" type="line"/>
      <point x="200" y="337" type="line"/>
      <point x="200" y="560" type="line"/>
      <point x="59" y="560" type="line"/>
    </contour>
    <contour>
      <point x="278" y="650" type="move" name="top"/>
    </contour>
    <contour>
      <point x="278" y="-150" type="move" name="bottom"/>
    </contour>
  </outline>
</glyph>
<glyph name="Lslash.smcp" format="1">
  <advance width="453"/>
  <outline>
    <contour>
      <point x="7" y="226" type="line"/>
      <point x="75" y="254" type="line"/>
      <point x="184" y="283" type="line"/>
      <point x="300" y="330" type="line"/>
      <point x="300" y="400" type="line"/>
      <point x="184" y="352" type="line"/>
      <point x="75" y="323" type="line"/>
      <point x="7" y="296" type="line"/>
    </contour>
    <component base="L.smcp"/>
  </outline>
</glyph>
<glyph name="b.salt" format="1">
  <advance width="575"/>
  <outline>
    <contour>
      <point x="202" y="117" type="curve"/>
      <point x="202" y="402" type="line"/>
      <point x="231" y="413"/>
      <point x="264" y="425"/>
      <point x="302" y="425" type="curve" smooth="yes"/>
      <point x="353" y="425"/>
      <point x="387" y="395"/>
      <point x="387" y="269" type="curve" smooth="yes"/>
      <point x="387" y="152"/>
      <point x="352" y="114"/>
      <point x="295" y="114" type="curve" smooth="yes"/>
      <point x="280" y="114"/>
      <point x="210" y="115"/>
    </contour>
    <contour>
      <point x="54" y="29" type="line"/>
      <point x="121" y="7"/>
      <point x="213" y="-8"/>
      <point x="298" y="-8" type="curve" smooth="yes"/>
      <point x="460" y="-8"/>
      <point x="535" y="77"/>
      <point x="535" y="261" type="curve" smooth="yes"/>
      <point x="535" y="449"/>
      <point x="494" y="545"/>
      <point x="352" y="545" type="curve" smooth="yes"/>
      <point x="304" y="545"/>
      <point x="245" y="526"/>
      <point x="202" y="506" type="curve"/>
      <point x="202" y="763" type="line"/>
      <point x="54" y="763" type="line"/>
    </contour>
  </outline>
</glyph>
<glyph name="c.superior" format="1">
  <advance width="364"/>
  <outline>
    <contour>
      <point x="26" y="474" type="curve" smooth="yes"/>
      <point x="26" y="321"/>
      <point x="96" y="276"/>
      <point x="196" y="276" type="curve" smooth="yes"/>
      <point x="247" y="276"/>
      <point x="303" y="286"/>
      <point x="340" y="299" type="curve"/>
      <point x="340" y="370" type="line"/>
      <point x="243" y="370" type="line" smooth="yes"/>
      <point x="174" y="370"/>
      <point x="156" y="386"/>
      <point x="156" y="475" type="curve" smooth="yes"/>
      <point x="156" y="564"/>
      <point x="176" y="585"/>
      <point x="241" y="585" type="curve" smooth="yes"/>
      <point x="334" y="585" type="line"/>
      <point x="334" y="658" type="line"/>
      <point x="284" y="673"/>
      <point x="252" y="678"/>
      <point x="200" y="678" type="curve" smooth="yes"/>
      <point x="87" y="678"/>
      <point x="26" y="633"/>
    </contour>
    <contour>
      <point x="201" y="753" type="move" name="top"/>
    </contour>
    <contour>
      <point x="201" y="170" type="move" name="bottom"/>
    </contour>
  </outline>
</glyph>
<glyph name="cedi.smcp" format="1">
  <advance width="511"/>
  <outline>
    <contour>
      <point x="340" y="-63" type="line"/>
      <point x="340" y="599" type="line"/>
      <point x="279" y="599" type="line"/>
      <point x="279" y="-63" type="line"/>
    </contour>
    <contour>
      <point x="50" y="274" type="curve" smooth="yes"/>
      <point x="50" y="40"/>
      <point x="136" y="-5"/>
      <point x="274" y="-5" type="curve" smooth="yes"/>
      <point x="367" y="-5"/>
      <point x="422" y="5"/>
      <point x="460" y="20" type="curve"/>
      <point x="460" y="116" type="line"/>
      <point x="428" y="111"/>
      <point x="383" y="108"/>
      <point x="307" y="108" type="curve" smooth="yes"/>
      <point x="200" y="108"/>
      <point x="176" y="137"/>
      <point x="176" y="273" type="curve" smooth="yes"/>
      <point x="176" y="425"/>
      <point x="214" y="445"/>
      <point x="315" y="445" type="curve" smooth="yes"/>
      <point x="354" y="445"/>
      <point x="418" y="442"/>
      <point x="460" y="438" type="curve"/>
      <point x="460" y="535" type="line"/>
      <point x="431" y="544"/>
      <point x="371" y="558"/>
      <point x="284" y="558" type="curve" smooth="yes"/>
      <point x="146" y="558"/>
      <point x="50" y="503"/>
    </contour>
  </outline>
</glyph>
<glyph name="dieresiscomb.case" format="1">
  <note>
    GF Latin Plus glyph
  </note>
  <outline>
    <contour>
      <point x="-437" y="818" type="line" smooth="yes"/>
      <point x="-437" y="805"/>
      <point x="-428" y="797"/>
      <point x="-416" y="797" type="curve" smooth="yes"/>
      <point x="-347" y="797" type="line" smooth="yes"/>
      <point x="-335" y="797"/>
      <point x="-327" y="804"/>
      <point x="-327" y="818" type="curve" smooth="yes"/>
      <point x="-327" y="915" type="line" smooth="yes"/>
      <point x="-327" y="927"/>
      <point x="-334" y="937"/>
      <point x="-347" y="937" type="curve" smooth="yes"/>
      <point x="-416" y="937" type="line" smooth="yes"/>
      <point x="-430" y="937"/>
      <point x="-437" y="928"/>
      <point x="-437" y="915" type="curve" smooth="yes"/>
    </contour>
    <contour>
      <point x="-224" y="818" type="line" smooth="yes"/>
      <point x="-224" y="805"/>
      <point x="-216" y="797"/>
      <point x="-204" y="797" type="curve" smooth="yes"/>
      <point x="-135" y="797" type="line" smooth="yes"/>
      <point x="-123" y="797"/>
      <point x="-115" y="804"/>
      <point x="-115" y="818" type="curve" smooth="yes"/>
      <point x="-115" y="915" type="line" smooth="yes"/>
      <point x="-115" y="927"/>
      <point x="-122" y="937"/>
      <point x="-135" y="937" type="curve" smooth="yes"/>
      <point x="-204" y="937" type="line" smooth="yes"/>
      <point x="-217" y="937"/>
      <point x="-224" y="928"/>
      <point x="-224" y="915" type="curve" smooth="yes"/>
    </contour>
    <contour>
      <point x="-269" y="810" type="move" name="_top"/>
    </contour>
  </outline>
</glyph>
<glyph name="dotbelowcomb" format="1">
  <note>
    GF Latin Plus glyph
  </note>
  <outline>
    <contour>
      <point x="-326" y="-205" type="line" smooth="yes"/>
      <point x="-326" y="-218"/>
      <point x="-318" y="-226"/>
      <point x="-306" y="-226" type="curve" smooth="yes"/>
      <point x="-237" y="-226" type="line" smooth="yes"/>
      <point x="-225" y="-226"/>
      <point x="-217" y="-219"/>
      <point x="-217" y="-205" type="curve" smooth="yes"/>
      <point x="-217" y="-108" type="line" smooth="yes"/>
      <point x="-217" y="-96"/>
      <point x="-224" y="-86"/>
      <point x="-237" y="-86" type="curve" smooth="yes"/>
      <point x="-306" y="-86" type="line" smooth="yes"/>
      <point x="-320" y="-86"/>
      <point x="-326" y="-95"/>
      <point x="-326" y="-108" type="curve" smooth="yes"/>
    </contour>
    <contour>
      <point x="-267" y="-150" type="move" name="_bottom"/>
    </contour>
  </outline>
</glyph>
<glyph name="f.salt" format="1">
  <advance width="363"/>
  <outline>
    <contour>
      <point x="57" y="0" type="line"/>
      <point x="205" y="0" type="line"/>
      <point x="205" y="418" type="line"/>
      <point x="335" y="418" type="line"/>
      <point x="335" y="537" type="line"/>
      <point x="205" y="537" type="line"/>
      <point x="205" y="581" type="line" smooth="yes"/>
      <point x="205" y="628"/>
      <point x="219" y="648"/>
      <point x="265" y="648" type="curve" smooth="yes"/>
      <point x="347" y="648" type="line"/>
      <point x="347" y="754" type="line"/>
      <point x="322" y="761"/>
      <point x="281" y="769"/>
      <point x="235" y="769" type="curve" smooth="yes"/>
      <point x="108" y="769"/>
      <point x="57" y="709"/>
      <point x="57" y="573" type="curve" smooth="yes"/>
    </contour>
  </outline>
</glyph>
<glyph name="f_y" format="1">
  <advance width="966"/>
  <outline>
    <contour>
      <point x="379" y="418" type="line"/>
      <point x="417" y="418"/>
      <point x="441" y="401"/>
      <point x="458" y="330" type="curve" smooth="yes"/>
      <point x="511" y="144" type="line" smooth="yes"/>
      <point x="534" y="51"/>
      <point x="589" y="0"/>
      <point x="680" y="0" type="curve"/>
      <point x="622" y="-237" type="line"/>
      <point x="745" y="-237" type="line"/>
      <point x="793" y="-138" type="line"/>
      <point x="954" y="537" type="line"/>
      <point x="803" y="537" type="line"/>
      <point x="707" y="121" type="line"/>
      <point x="695" y="122"/>
      <point x="662" y="123"/>
      <point x="648" y="174" type="curve" smooth="yes"/>
      <point x="593" y="396" type="line" smooth="yes"/>
      <point x="570" y="507"/>
      <point x="521" y="537"/>
      <point x="379" y="537" type="curve"/>
    </contour>
    <component base="f"/>
  </outline>
</glyph>
<glyph name="five.smcp" format="1">
  <advance width="503"/>
  <outline>
    <contour>
      <point x="52" y="9" type="line"/>
      <point x="117" y="3"/>
      <point x="193" y="-4"/>
      <point x="255" y="-4" type="curve" smooth="yes"/>
      <point x="392" y="-4"/>
      <point x="461" y="38"/>
      <point x="461" y="139" type="curve" smooth="yes"/>
      <point x="461" y="221" type="line" smooth="yes"/>
      <point x="461" y="293"/>
      <point x="418" y="350"/>
      <point x="325" y="350" type="curve" smooth="yes"/>
      <point x="262" y="350" type="line" smooth="yes"/>
      <point x="233" y="350"/>
      <point x="204" y="344"/>
      <point x="188" y="331" type="curve"/>
      <point x="193" y="440" type="line"/>
      <point x="437" y="440" type="line"/>
      <point x="437" y="560" type="line"/>
      <point x="72" y="560" type="line"/>
      <point x="56" y="212" type="line"/>
      <point x="189" y="212" type="line"/>
      <point x="193" y="233"/>
      <point x="207" y="243"/>
      <point x="234" y="243" type="curve" smooth="yes"/>
      <point x="273" y="243" type="line" smooth="yes"/>
      <point x="305" y="243"/>
      <point x="320" y="227"/>
      <point x="320" y="196" type="curve" smooth="yes"/>
      <point x="320" y="167" type="line" smooth="yes"/>
      <point x="320" y="131"/>
      <point x="296" y="115"/>
      <point x="258" y="115" type="curve" smooth="yes"/>
      <point x="52" y="115" type="line"/>
    </contour>
  </outline>
</glyph>
<glyph name="florin.smcp" format="1">
  <advance width="511"/>
  <outline>
    <contour>
      <point x="22" y="-136" type="line"/>
      <point x="37" y="-144"/>
      <point x="73" y="-154"/>
      <point x="118" y="-154" type="curve" smooth="yes"/>
      <point x="221" y="-154"/>
      <point x="268" y="-77"/>
      <point x="294" y="66" type="curve" smooth="yes"/>
      <point x="332" y="274" type="line"/>
      <point x="409" y="274" type="line"/>
      <point x="424" y="367" type="line"/>
      <point x="344" y="367" type="line"/>
      <point x="358" y="433" type="line" smooth="yes"/>
      <point x="366" y="476"/>
      <point x="381" y="504"/>
      <point x="431" y="504" type="curve" smooth="yes"/>
      <point x="465" y="504" type="line"/>
      <point x="478" y="586" type="line"/>
      <point x="464" y="592"/>
      <point x="437" y="603"/>
      <point x="380" y="603" type="curve" smooth="yes"/>
      <point x="282" y="603"/>
      <point x="238" y="540"/>
      <point x="225" y="471" type="curve" smooth="yes"/>
      <point x="203" y="367" type="line"/>
      <point x="142" y="367" type="line"/>
      <point x="126" y="274" type="line"/>
      <point x="191" y="274" type="line"/>
      <point x="148" y="32" type="line" smooth="yes"/>
      <point x="136" y="-31"/>
      <point x="116" y="-55"/>
      <point x="71" y="-55" type="curve" smooth="yes"/>
      <point x="36" y="-55" type="line"/>
    </contour>
  </outline>
</glyph>
<glyph name="horncomb.case" format="1">
  <note>
    GF Latin Plus glyph
  </note>
  <outline>
    <contour>
      <point x="-253" y="660" type="line"/>
      <point x="-150" y="660" type="line" smooth="yes"/>
      <point x="-63" y="660"/>
      <point x="-3" y="723"/>
      <point x="-3" y="850" type="curve"/>
      <point x="-106" y="850" type="line"/>
      <point x="-106" y="768"/>
      <point x="-132" y="740"/>
      <point x="-177" y="740" type="curve" smooth="yes"/>
      <point x="-253" y="740" type="line"/>
    </contour>
    <contour>
      <point x="-284" y="810" type="move" name="_top"/>
    </contour>
  </outline>
</glyph>
<glyph name="jdotless" format="1">
  <advance width="262"/>
  <note>
    GF Latin Plus glyph
  </note>
  <outline>
    <contour>
      <point x="57" y="-237" type="line"/>
      <point x="169" y="-237" type="line"/>
      <point x="191" y="-175"/>
      <point x="205" y="-80"/>
      <point x="205" y="4" type="curve" smooth="yes"/>
      <point x="205" y="537" type="line"/>
      <point x="57" y="537" type="line"/>
    </contour>
    <contour>
      <point x="131" y="650" type="move" name="top"/>
    </contour>
  </outline>
</glyph>
<glyph name="ordmasculine.smcp" format="1">
  <advance width="416"/>
  <outline>
    <contour>
      <point x="144" y="524" type="curve" smooth="yes"/>
      <point x="144" y="606"/>
      <point x="155" y="622"/>
      <point x="208" y="622" type="curve" smooth="yes"/>
      <point x="261" y="622"/>
      <point x="273" y="606"/>
      <point x="273" y="524" type="curve" smooth="yes"/>
      <point x="273" y="446"/>
      <point x="261" y="426"/>
      <point x="208" y="426" type="curve" smooth="yes"/>
      <point x="156" y="426"/>
      <point x="144" y="446"/>
    </contour>
    <contour>
      <point x="30" y="524" type="curve" smooth="yes"/>
      <point x="30" y="365"/>
      <point x="91" y="332"/>
      <point x="208" y="332" type="curve" smooth="yes"/>
      <point x="326" y="332"/>
      <point x="387" y="365"/>
      <point x="387" y="524" type="curve" smooth="yes"/>
      <point x="387" y="684"/>
      <point x="326" y="717"/>
      <point x="208" y="717" type="curve" smooth="yes"/>
      <point x="91" y="717"/>
      <point x="30" y="684"/>
    </contour>
    <contour>
      <point x="19" y="209" type="line"/>
      <point x="397" y="209" type="line"/>
      <point x="397" y="279" type="line"/>
      <point x="19" y="279" type="line"/>
    </contour>
  </outline>
</glyph>
<glyph name="p.salt" format="1">
  <advance width="575"/>
  <outline>
    <contour>
      <point x="202" y="135" type="curve"/>
      <point x="202" y="420" type="line"/>
      <point x="210" y="422"/>
      <point x="282" y="427"/>
      <point x="300" y="427" type="curve" smooth="yes"/>
      <point x="360" y="427"/>
      <point x="387" y="379"/>
      <point x="387" y="262" type="curve" smooth="yes"/>
      <point x="387" y="152"/>
      <point x="353" y="116"/>
      <point x="297" y="116" type="curve" smooth="yes"/>
      <point x="264" y="116"/>
      <point x="233" y="124"/>
    </contour>
    <contour>
      <point x="54" y="-246" type="line"/>
      <point x="202" y="-246" type="line"/>
      <point x="202" y="22" type="line"/>
      <point x="245" y="2"/>
      <point x="305" y="-7"/>
      <point x="347" y="-7" type="curve" smooth="yes"/>
      <point x="501" y="-7"/>
      <point x="535" y="104"/>
      <point x="535" y="270" type="curve" smooth="yes"/>
      <point x="535" y="454"/>
      <point x="484" y="547"/>
      <point x="311" y="547" type="curve" smooth="yes"/>
      <point x="209" y="547"/>
      <point x="127" y="530"/>
      <point x="54" y="496" type="curve"/>
    </contour>
    <contour>
      <point x="292" y="650" type="move" name="top"/>
    </contour>
  </outline>
</glyph>
<glyph name="parenleft.smcp" format="1">
  <advance width="346"/>
  <outline>
    <contour>
      <point x="50" y="281" type="curve" smooth="yes"/>
      <point x="50" y="68"/>
      <point x="129" y="-55"/>
      <point x="199" y="-124" type="curve"/>
      <point x="324" y="-124" type="line"/>
      <point x="251" y="-13"/>
      <point x="191" y="103"/>
      <point x="191" y="281" type="curve" smooth="yes"/>
      <point x="191" y="458"/>
      <point x="266" y="595"/>
      <point x="324" y="684" type="curve"/>
      <point x="199" y="684" type="line"/>
      <point x="134" y="614"/>
      <point x="50" y="479"/>
    </contour>
  </outline>
</glyph>
<glyph name="ringhalfright" format="1">
  <advance width="207"/>
  <outline>
    <contour>
      <point x="25" y="750" type="line"/>
      <point x="74" y="750"/>
      <point x="96" y="736"/>
      <point x="96" y="697" type="curve" smooth="yes"/>
      <point x="96" y="659"/>
      <point x="74" y="645"/>
      <point x="25" y="645" type="curve"/>
      <point x="25" y="583" type="line"/>
      <point x="122" y="583"/>
      <point x="174" y="611"/>
      <point x="174" y="697" type="curve" smooth="yes"/>
      <point x="174" y="783"/>
      <point x="122" y="812"/>
      <point x="25" y="812" type="curve"/>
    </contour>
  </outline>
</glyph>
<glyph name="six.smcp" format="1">
  <advance width="505"/>
  <outline>
    <contour>
      <point x="180" y="241" type="curve"/>
      <point x="262" y="241" type="line" smooth="yes"/>
      <point x="305" y="241"/>
      <point x="336" y="229"/>
      <point x="336" y="186" type="curve" smooth="yes"/>
      <point x="336" y="159" type="line" smooth="yes"/>
      <point x="336" y="123"/>
      <point x="313" y="115"/>
      <point x="287" y="115" type="curve" smooth="yes"/>
      <point x="248" y="115" type="line" smooth="yes"/>
      <point x="196" y="115"/>
      <point x="180" y="141"/>
    </contour>
    <contour>
      <point x="46" y="270" type="curve" smooth="yes"/>
      <point x="46" y="53"/>
      <point x="108" y="-4"/>
      <point x="229" y="-4" type="curve" smooth="yes"/>
      <point x="313" y="-4" type="line" smooth="yes"/>
      <point x="403" y="-4"/>
      <point x="464" y="35"/>
      <point x="464" y="132" type="curve" smooth="yes"/>
      <point x="464" y="213" type="line" smooth="yes"/>
      <point x="464" y="286"/>
      <point x="431" y="338"/>
      <point x="316" y="338" type="curve" smooth="yes"/>
      <point x="249" y="338"/>
      <point x="218" y="332"/>
      <point x="180" y="316" type="curve"/>
      <point x="180" y="399"/>
      <point x="210" y="445"/>
      <point x="291" y="445" type="curve" smooth="yes"/>
      <point x="428" y="445" type="line"/>
      <point x="428" y="550" type="line"/>
      <point x="385" y="560"/>
      <point x="331" y="565"/>
      <point x="275" y="565" type="curve" smooth="yes"/>
      <point x="131" y="565"/>
      <point x="46" y="497"/>
    </contour>
  </outline>
</glyph>
<glyph name="three.tnum" format="1">
  <advance width="609"/>
  <outline>
    <contour>
      <point x="70" y="606" type="line"/>
      <point x="276" y="606" type="line" smooth="yes"/>
      <point x="358" y="606"/>
      <point x="390" y="581"/>
      <point x="390" y="528" type="curve" smooth="yes"/>
      <point x="390" y="503" type="line" smooth="yes"/>
      <point x="390" y="458"/>
      <point x="356" y="442"/>
      <point x="295" y="439" type="curve" smooth="yes"/>
      <point x="120" y="429" type="line"/>
      <point x="120" y="315" type="line"/>
      <point x="302" y="308" type="line" smooth="yes"/>
      <point x="356" y="306"/>
      <point x="399" y="287"/>
      <point x="399" y="234" type="curve" smooth="yes"/>
      <point x="399" y="203" type="line" smooth="yes"/>
      <point x="399" y="149"/>
      <point x="362" y="134"/>
      <point x="281" y="134" type="curve" smooth="yes"/>
      <point x="54" y="134" type="line"/>
      <point x="54" y="15" type="line"/>
      <point x="132" y="2"/>
      <point x="230" y="-6"/>
      <point x="337" y="-6" type="curve" smooth="yes"/>
      <point x="469" y="-6"/>
      <point x="548" y="58"/>
      <point x="548" y="176" type="curve" smooth="yes"/>
      <point x="548" y="214" type="line" smooth="yes"/>
      <point x="548" y="300"/>
      <point x="500" y="356"/>
      <point x="444" y="372" type="curve"/>
      <point x="497" y="389"/>
      <point x="537" y="431"/>
      <point x="537" y="508" type="curve" smooth="yes"/>
      <point x="537" y="563" type="line" smooth="yes"/>
      <point x="537" y="682"/>
      <point x="464" y="745"/>
      <point x="335" y="746" type="curve" smooth="yes"/>
      <point x="236" y="748"/>
      <point x="145" y="736"/>
      <point x="70" y="724" type="curve"/>
    </contour>
  </outline>
</glyph>
<glyph name="zero.tosf.zero" format="1">
  <advance width="609"/>
  <outline>
    <contour>
      <point x="405" y="450" type="line"/>
      <point x="113" y="85" type="line"/>
      <point x="196" y="85" type="line"/>
      <point x="488" y="450" type="line"/>
    </contour>
    <component base="zero.tosf"/>
  </outline>
</glyph>
